<svg xmlns="http://www.w3.org/2000/svg" viewBox="0 0 40 40" width="40" height="40">
  <!-- Gold rounded square background -->
  <rect x="1" y="1" width="38" height="38" rx="6" fill="#C9A84C"/>
  <!-- Open book - left page -->
  <path d="M7,13 C11,11 16,11 20,13 L20,29 C16,27 11,27 7,29 Z" fill="#0F0E0C" opacity="0.9"/>
  <!-- Open book - right page -->
  <path d="M33,13 C29,11 24,11 20,13 L20,29 C24,27 29,27 33,29 Z" fill="#0F0E0C" opacity="0.9"/>
  <!-- Spine line -->
  <line x1="20" y1="13" x2="20" y2="29" stroke="#C9A84C" stroke-width="1.5"/>
  <!-- AI spark top right -->
  <circle cx="31" cy="10" r="1.2" fill="#0F0E0C"/>
  <line x1="31" y1="6" x2="31" y2="8.5" stroke="#0F0E0C" stroke-width="1.2"/>
  <line x1="31" y1="11.5" x2="31" y2="14" stroke="#0F0E0C" stroke-width="1.2"/>
  <line x1="27" y1="10" x2="29.5" y2="10" stroke="#0F0E0C" stroke-width="1.2"/>
  <line x1="32.5" y1="10" x2="35" y2="10" stroke="#0F0E0C" stroke-width="1.2"/>
</svg>
