<svg xmlns="http://www.w3.org/2000/svg" viewBox="0 0 48 48" width="48" height="48">
  <path fill="#4285F4" d="M44.5 20H24v8.5h11.7C34.7 33.9 30.1 37 24 37c-7.2 0-13-5.8-13-13s5.8-13 13-13c3.1 0 5.9 1.1 8.1 2.9l6.4-6.4C34.6 4.1 29.6 2 24 2 11.8 2 2 11.8 2 24s9.8 22 22 22c11 0 21-8 21-22 0-1.3-.2-2.7-.5-4z"/>
  <path fill="#34A853" d="M6.3 14.7l7 5.1C15.2 16 19.2 13 24 13c3.1 0 5.9 1.1 8.1 2.9l6.4-6.4C34.6 4.1 29.6 2 24 2 16.3 2 9.7 6.6 6.3 14.7z"/>
  <path fill="#FBBC05" d="M24 46c5.4 0 10.3-1.8 14.1-4.9l-6.5-5.5C29.5 37.5 26.9 38.5 24 38.5c-6 0-11.1-4-12.9-9.5l-7 5.4C7.7 41.4 15.3 46 24 46z"/>
  <path fill="#EA4335" d="M44.5 20H24v8.5h11.7c-1 3.2-3.1 5.8-5.8 7.6l6.5 5.5C40.6 38.1 46 31.8 46 24c0-1.3-.2-2.7-.5-4z"/>
</svg>
